<?xml version="1.0"?>
<svg xmlns="http://www.w3.org/2000/svg" version="1.1" viewBox="0 0 29 29">
	<g>
		<path d="M 0 0 v 4 v 1 h 1 v 1 h 1 v 1 h 1 v 1 h 1 v 1 h 1 v 1 h 1 v 1 h 1 v 1 h 1 v 1 h 1 v 1 h 1 v 1 h 1 v 1 h 1 v 1 h 1 v 1 h 1 v 1 h 1 v 1 h 1 v 1 h 1 v 1 h 1 v 1 h 1 v 1 h 1 v 1 h 1 v 1 h 1 v 1 h 1 v 1 h 1 v 1 h 1 h 4v -1 h -1 v -1 h -1 v -1 h -1 v -1 h -1 v -1 h -1 v -1 h -1 v -1 h -1 v -1 h -1 v -1 h -1 v -1 h -1 v -1 h -1 v -1 h -1 v -1 h -1 v -1 h -1 v -1 h -1 v -1 h -1 v -1 h -1 v -1 h -1 v -1 h -1 v -1 h -1 v -1 h -1 v -1 h -1 v -1 h -1 v -1 h -1 v -1 h -1 v -1 h -1 v -1 h -1 v -1 h -1 v -1 h -1  Z" fill="#c7724a"/>
	</g>
</svg>